# Blender 3.6.0
# www.blender.org
mtllib test_cube.mtl
o Cube
v 0.500000 0.500000 -0.500000
v 0.500000 -0.500000 -0.500000
v 0.500000 0.500000 0.500000
v 0.500000 -0.500000 0.500000
v -0.500000 0.500000 -0.500000
v -0.500000 -0.500000 -0.500000
v -0.500000 0.500000 0.500000
v -0.500000 -0.500000 0.500000
vn -0.0000 1.0000 -0.0000
vn -0.0000 -0.0000 1.0000
vn -1.0000 -0.0000 -0.0000
vn -0.0000 -1.0000 -0.0000
vn 1.0000 -0.0000 -0.0000
vn -0.0000 -0.0000 -1.0000
vt 0.312500 0.398438
vt 0.601562 0.398438
vt 0.601562 0.687500
vt 0.312500 0.687500
vt 0.601562 0.101562
vt 0.312500 0.101562
vt 0.015625 0.398438
vt 0.015625 0.687500
vt 0.632812 0.351562
vt 0.632812 0.062500
vt 0.929688 0.062500
vt 0.929688 0.351562
vt 0.898438 0.687500
vt 0.898438 0.398438
vt 0.312500 0.984375
vt 0.601562 0.984375
s 0
usemtl Material
f 1/1/1 5/2/1 7/3/1 3/4/1
f 4/5/2 3/2/2 7/1/2 8/6/2
f 8/7/3 7/1/3 5/4/3 6/8/3
f 6/9/4 2/10/4 4/11/4 8/12/4
f 2/13/5 1/3/5 3/2/5 4/14/5
f 6/15/6 5/4/6 1/3/6 2/16/6
